<svg width="16" height="16" viewBox="0 0 16 16" fill="none" xmlns="http://www.w3.org/2000/svg">
<path d="M13.7598 8.60015H3.27969V2.78846C3.28003 2.55154 3.37288 2.32412 3.53846 2.15466C3.70403 1.98521 3.92924 1.8871 4.16609 1.88126C4.16273 1.90782 4.15921 1.93438 4.15985 1.96174C4.16278 2.10348 4.22067 2.23853 4.32129 2.33838L4.42097 2.43806C4.12929 2.92798 4.16961 3.54447 4.55937 3.93439L4.61585 3.99087L4.38961 4.21711L4.72897 4.55647L4.95521 4.33022H4.95537L7.21809 2.06734L7.44417 1.8411L7.10481 1.50174L6.87841 1.72798L6.82209 1.67166C6.60929 1.45886 6.31905 1.34158 6.00513 1.34158C5.76881 1.34158 5.53409 1.41038 5.32657 1.53342L5.22625 1.43326C5.03105 1.23774 4.70161 1.22718 4.49729 1.39998H4.18785C3.42241 1.39998 2.79953 2.02286 2.79953 2.7883V8.59999H2.23953C1.93073 8.59999 1.67969 8.85119 1.67969 9.15999C1.67969 9.46879 1.93073 9.71999 2.23953 9.71999H2.79985V9.72015H13.1997V9.71999H13.7598C14.0686 9.71999 14.3198 9.46879 14.3198 9.15999C14.3198 8.85119 14.0686 8.60015 13.7598 8.60015Z" fill="#78D253"/>
<path d="M6.76562 4.33008L6.08693 3.65136L6.42634 3.31195L7.10504 3.99067L6.76562 4.33008Z" fill="#78D253"/>
<path d="M9.14062 6.70605L9.48003 6.36664L9.9327 6.81929L9.59329 7.15871L9.14062 6.70605Z" fill="#78D253"/>
<path d="M8.46289 5.34814L9.1416 6.02707L8.80214 6.36643L8.12343 5.6875L8.46289 5.34814Z" fill="#78D253"/>
<path d="M7.10547 4.66943L7.44487 4.33002L8.12371 5.00883L7.7843 5.34824L7.10547 4.66943Z" fill="#78D253"/>
<path d="M8.00977 6.70612L8.34917 6.3667L9.02789 7.0454L8.68849 7.38481L8.00977 6.70612Z" fill="#78D253"/>
<path d="M6.99219 5.00928L6.65278 5.34869L5.97406 4.67L6.31347 4.33058L6.99219 5.00928Z" fill="#78D253"/>
<path d="M9.36719 7.3847L9.81984 7.83737L9.48042 8.17678L9.02777 7.72411L9.36719 7.3847Z" fill="#78D253"/>
<path d="M7.66992 6.3667L6.991 5.68775L7.33042 5.34835L8.00934 6.02729L7.66992 6.3667Z" fill="#78D253"/>
<path d="M8.00977 4.44318L8.34917 4.10376L9.02812 4.78268L8.68872 5.1221L8.00977 4.44318Z" fill="#78D253"/>
<path d="M7.66992 4.104L6.99122 3.42528L7.33064 3.08587L8.00934 3.7646L7.66992 4.104Z" fill="#78D253"/>
<path d="M9.02734 5.46143L9.36675 5.12201L10.0455 5.80071L9.70606 6.14012L9.02734 5.46143Z" fill="#78D253"/>
<path d="M10.3848 6.14014L10.8375 6.59292L10.4981 6.93232L10.0453 6.47954L10.3848 6.14014Z" fill="#78D253"/>
<path d="M11.0645 5.68799L10.725 6.0274L10.2724 5.57475L10.6118 5.23534L11.0645 5.68799Z" fill="#78D253"/>
<path d="M8.23633 2.85919L7.89692 3.19861L7.21821 2.51991L7.55761 2.18049L8.23633 2.85919Z" fill="#78D253"/>
<path d="M10.2734 4.896L9.93403 5.23541L9.2552 4.5566L9.5946 4.21719L10.2734 4.896Z" fill="#78D253"/>
<path d="M9.25391 3.87793L8.9145 4.21735L8.23566 3.53854L8.57507 3.19912L9.25391 3.87793Z" fill="#78D253"/>
<path d="M6.3125 5.46143L6.99143 6.14037L6.65201 6.47978L5.97308 5.80083L6.3125 5.46143Z" fill="#78D253"/>
<path d="M5.63477 5.46143L4.95607 4.78271L5.29548 4.4433L5.97418 5.12202L5.63477 5.46143Z" fill="#78D253"/>
<path d="M7.33203 6.47949L8.01073 7.15821L7.67131 7.49762L6.99261 6.8189L7.33203 6.47949Z" fill="#78D253"/>
<path d="M8.34961 7.49756L8.80226 7.95023L8.46284 8.28963L8.01019 7.83696L8.34961 7.49756Z" fill="#78D253"/>
<path d="M2.80078 10.4871C2.80029 11.1597 2.99042 11.8187 3.34916 12.3877C3.70789 12.9567 4.22053 13.4124 4.82766 13.702C4.78825 13.856 4.69879 13.9926 4.57334 14.0903C4.4479 14.188 4.29355 14.2413 4.13454 14.2418C4.06846 14.2418 4.00286 14.2327 3.9395 14.2149L3.80926 14.6768C3.91486 14.7068 4.02446 14.7218 4.13454 14.7218C4.66254 14.7218 5.12382 14.3743 5.2779 13.8794C5.61731 13.9861 5.97106 14.0403 6.32686 14.04H9.67454C10.0301 14.04 10.3733 13.9863 10.6973 13.8871C10.7746 14.129 10.9267 14.3402 11.1317 14.4902C11.3367 14.6402 11.584 14.7213 11.8381 14.7218C11.948 14.7218 12.0575 14.7067 12.1633 14.6768L12.0331 14.2149C11.9696 14.2327 11.904 14.2418 11.8381 14.2418C11.5137 14.2418 11.2334 14.0223 11.1481 13.7136C12.3584 13.1503 13.2006 11.9162 13.2006 10.4871V10.2002H2.80078V10.4871Z" fill="#78D253"/>
</svg>
