<svg width="16" height="16" viewBox="0 0 16 16" fill="none" xmlns="http://www.w3.org/2000/svg">
<g clip-path="url(#clip0_650_3171)">
<path d="M15.5 7C15.5 6.60218 15.342 6.22064 15.0607 5.93934C14.7794 5.65804 14.3978 5.5 14 5.5H3.5V2.5C3.5 2.23478 3.60536 1.98043 3.79289 1.79289C3.98043 1.60536 4.23478 1.5 4.5 1.5C4.76522 1.5 5.01957 1.60536 5.20711 1.79289C5.39464 1.98043 5.5 2.23478 5.5 2.5H5C4.86739 2.5 4.74021 2.55268 4.64645 2.64645C4.55268 2.74021 4.5 2.86739 4.5 3C4.5 3.13261 4.55268 3.25979 4.64645 3.35355C4.74021 3.44732 4.86739 3.5 5 3.5H7C7.13261 3.5 7.25979 3.44732 7.35355 3.35355C7.44732 3.25979 7.5 3.13261 7.5 3C7.5 2.86739 7.44732 2.74021 7.35355 2.64645C7.25979 2.55268 7.13261 2.5 7 2.5H6.5C6.5 1.96957 6.28929 1.46086 5.91421 1.08579C5.53914 0.710714 5.03043 0.5 4.5 0.5C3.96957 0.5 3.46086 0.710714 3.08579 1.08579C2.71071 1.46086 2.5 1.96957 2.5 2.5V5.5H2C1.60218 5.5 1.22064 5.65804 0.93934 5.93934C0.658035 6.22064 0.5 6.60218 0.5 7C0.501834 7.3222 0.60737 7.63525 0.800983 7.8928C0.994595 8.15035 1.26599 8.33871 1.575 8.43L2.35 12.295C2.40677 12.5986 2.55586 12.8772 2.77689 13.0929C2.99793 13.3085 3.28014 13.4507 3.585 13.5L3.035 14.83C2.98553 14.9527 2.98669 15.09 3.03824 15.2118C3.08978 15.3336 3.1875 15.4301 3.31 15.48C3.37096 15.5012 3.43597 15.508 3.5 15.5C3.59956 15.5005 3.69701 15.4713 3.77985 15.416C3.8627 15.3608 3.92717 15.2821 3.965 15.19L4.655 13.5H11.345L12.035 15.19C12.0728 15.2821 12.1373 15.3608 12.2201 15.416C12.303 15.4713 12.4004 15.5005 12.5 15.5C12.5656 15.5017 12.6307 15.488 12.69 15.46C12.8125 15.4101 12.9102 15.3136 12.9618 15.1918C13.0133 15.07 13.0145 14.9327 12.965 14.81L12.415 13.5C12.7171 13.452 12.9974 13.3127 13.2181 13.1009C13.4388 12.8891 13.5895 12.6149 13.65 12.315L14.425 8.45C14.7373 8.35775 15.0111 8.16638 15.205 7.90479C15.3989 7.64321 15.5025 7.32562 15.5 7ZM12.67 12.1C12.6466 12.2146 12.5838 12.3174 12.4924 12.3905C12.4011 12.4636 12.287 12.5024 12.17 12.5H3.82C3.70303 12.5024 3.58893 12.4636 3.49757 12.3905C3.40621 12.3174 3.34338 12.2146 3.32 12.1L2.61 8.5H13.39L12.67 12.1ZM14 7.5H2C1.86739 7.5 1.74021 7.44732 1.64645 7.35355C1.55268 7.25979 1.5 7.13261 1.5 7C1.5 6.86739 1.55268 6.74021 1.64645 6.64645C1.74021 6.55268 1.86739 6.5 2 6.5H14C14.1326 6.5 14.2598 6.55268 14.3536 6.64645C14.4473 6.74021 14.5 6.86739 14.5 7C14.5 7.13261 14.4473 7.25979 14.3536 7.35355C14.2598 7.44732 14.1326 7.5 14 7.5Z" fill="#78D253"/>
</g>
<defs>
<clipPath id="clip0_650_3171">
<rect width="16" height="16" fill="white"/>
</clipPath>
</defs>
</svg>
