<svg width="16" height="16" viewBox="0 0 16 16" fill="none" xmlns="http://www.w3.org/2000/svg">
<path d="M14.5 8H12V6C12 5.86739 11.9473 5.74021 11.8536 5.64645C11.7598 5.55268 11.6326 5.5 11.5 5.5H4.5C4.36739 5.5 4.24021 5.55268 4.14645 5.64645C4.05268 5.74021 4 5.86739 4 6V8H1.5C1.36739 8 1.24021 8.05268 1.14645 8.14645C1.05268 8.24021 1 8.36739 1 8.5V12.5C1 12.6326 1.05268 12.7598 1.14645 12.8536C1.24021 12.9473 1.36739 13 1.5 13H2V14C2 14.1326 2.05268 14.2598 2.14645 14.3536C2.24021 14.4473 2.36739 14.5 2.5 14.5C2.63261 14.5 2.75979 14.4473 2.85355 14.3536C2.94732 14.2598 3 14.1326 3 14V13H13V14C13 14.1326 13.0527 14.2598 13.1464 14.3536C13.2402 14.4473 13.3674 14.5 13.5 14.5C13.6326 14.5 13.7598 14.4473 13.8536 14.3536C13.9473 14.2598 14 14.1326 14 14V13H14.5C14.6326 13 14.7598 12.9473 14.8536 12.8536C14.9473 12.7598 15 12.6326 15 12.5V8.5C15 8.36739 14.9473 8.24021 14.8536 8.14645C14.7598 8.05268 14.6326 8 14.5 8ZM11 8H8.5V6.5H11V8ZM5 6.5H7.5V8H5V6.5ZM14 12H2V9H14V12Z" fill="#78D253"/>
<path d="M2.5 7.5C2.63261 7.5 2.75979 7.44732 2.85355 7.35355C2.94732 7.25979 3 7.13261 3 7V2.5H13V7C13 7.13261 13.0527 7.25979 13.1464 7.35355C13.2402 7.44732 13.3674 7.5 13.5 7.5C13.6326 7.5 13.7598 7.44732 13.8536 7.35355C13.9473 7.25979 14 7.13261 14 7V2C14 1.86739 13.9473 1.74021 13.8536 1.64645C13.7598 1.55268 13.6326 1.5 13.5 1.5H2.5C2.36739 1.5 2.24021 1.55268 2.14645 1.64645C2.05268 1.74021 2 1.86739 2 2V7C2 7.13261 2.05268 7.25979 2.14645 7.35355C2.24021 7.44732 2.36739 7.5 2.5 7.5Z" fill="#78D253"/>
</svg>
