<svg width="17" height="16" viewBox="0 0 17 16" fill="none" xmlns="http://www.w3.org/2000/svg">
<path d="M15 8H12.5V6C12.5 5.86739 12.4473 5.74021 12.3536 5.64645C12.2598 5.55268 12.1326 5.5 12 5.5H5C4.86739 5.5 4.74021 5.55268 4.64645 5.64645C4.55268 5.74021 4.5 5.86739 4.5 6V8H2C1.86739 8 1.74021 8.05268 1.64645 8.14645C1.55268 8.24021 1.5 8.36739 1.5 8.5V12.5C1.5 12.6326 1.55268 12.7598 1.64645 12.8536C1.74021 12.9473 1.86739 13 2 13H2.5V14C2.5 14.1326 2.55268 14.2598 2.64645 14.3536C2.74021 14.4473 2.86739 14.5 3 14.5C3.13261 14.5 3.25979 14.4473 3.35355 14.3536C3.44732 14.2598 3.5 14.1326 3.5 14V13H13.5V14C13.5 14.1326 13.5527 14.2598 13.6464 14.3536C13.7402 14.4473 13.8674 14.5 14 14.5C14.1326 14.5 14.2598 14.4473 14.3536 14.3536C14.4473 14.2598 14.5 14.1326 14.5 14V13H15C15.1326 13 15.2598 12.9473 15.3536 12.8536C15.4473 12.7598 15.5 12.6326 15.5 12.5V8.5C15.5 8.36739 15.4473 8.24021 15.3536 8.14645C15.2598 8.05268 15.1326 8 15 8ZM11.5 8H9V6.5H11.5V8ZM5.5 6.5H8V8H5.5V6.5ZM14.5 12H2.5V9H14.5V12Z" fill="#1F1F1F"/>
<path d="M3 7.5C3.13261 7.5 3.25979 7.44732 3.35355 7.35355C3.44732 7.25979 3.5 7.13261 3.5 7V2.5H13.5V7C13.5 7.13261 13.5527 7.25979 13.6464 7.35355C13.7402 7.44732 13.8674 7.5 14 7.5C14.1326 7.5 14.2598 7.44732 14.3536 7.35355C14.4473 7.25979 14.5 7.13261 14.5 7V2C14.5 1.86739 14.4473 1.74021 14.3536 1.64645C14.2598 1.55268 14.1326 1.5 14 1.5H3C2.86739 1.5 2.74021 1.55268 2.64645 1.64645C2.55268 1.74021 2.5 1.86739 2.5 2V7C2.5 7.13261 2.55268 7.25979 2.64645 7.35355C2.74021 7.44732 2.86739 7.5 3 7.5Z" fill="#1F1F1F"/>
</svg>
