<svg width="16" height="16" viewBox="0 0 16 16" fill="none" xmlns="http://www.w3.org/2000/svg">
<path d="M7.99935 11C7.91094 11 7.82616 10.9649 7.76365 10.9024C7.70113 10.8399 7.66602 10.7551 7.66602 10.6667V5.33333C7.66602 5.24493 7.70113 5.16014 7.76365 5.09763C7.82616 5.03512 7.91094 5 7.99935 5C8.08775 5 8.17254 5.03512 8.23505 5.09763C8.29756 5.16014 8.33268 5.24493 8.33268 5.33333V10.6667C8.33268 10.7551 8.29756 10.8399 8.23505 10.9024C8.17254 10.9649 8.08775 11 7.99935 11Z" fill="#78D253"/>
<path d="M8.00066 11C7.91226 11 7.82747 10.9649 7.76496 10.9024C7.70245 10.8399 7.66733 10.7551 7.66733 10.6667V5.33333C7.66733 5.24493 7.70245 5.16014 7.76496 5.09763C7.82747 5.03512 7.91226 5 8.00066 5C8.08907 5 8.17385 5.03512 8.23637 5.09763C8.29888 5.16014 8.334 5.24493 8.334 5.33333V10.6667C8.334 10.7551 8.29888 10.8399 8.23637 10.9024C8.17385 10.9649 8.08907 11 8.00066 11ZM6.66733 5H5.256C5.17477 5.00002 5.09634 5.02971 5.03545 5.08348C4.97456 5.13724 4.9354 5.2114 4.92533 5.292L4.75866 6.62533C4.7525 6.67224 4.75652 6.71991 4.77044 6.76513C4.78436 6.81034 4.80786 6.85202 4.83933 6.88733C4.87043 6.92301 4.90887 6.95154 4.95202 6.97098C4.99517 6.99043 5.042 7.00033 5.08933 7H6.66733C6.75574 7 6.84052 6.96488 6.90303 6.90237C6.96554 6.83986 7.00066 6.75507 7.00066 6.66667V5.33333C7.00066 5.24493 6.96554 5.16014 6.90303 5.09763C6.84052 5.03512 6.75574 5 6.66733 5Z" fill="#78D253"/>
<path d="M4.206 5.66669L4.26333 5.20935C4.29383 4.96766 4.41138 4.74537 4.59399 4.58411C4.77659 4.42286 5.01172 4.33371 5.25533 4.33335H6.66667C7.218 4.33335 7.66667 4.78202 7.66667 5.33335V5.66669H8.33333V5.33335C8.33333 4.78202 8.782 4.33335 9.33333 4.33335H10.7447C11.248 4.33335 11.6747 4.71002 11.7367 5.20935L11.8027 5.73802C11.8588 5.69319 11.9282 5.66812 12 5.66669H13V3.33335C13 2.41469 12.252 1.66669 11.3333 1.66669H4.66667C4.2248 1.66722 3.80119 1.84298 3.48874 2.15543C3.17629 2.46787 3.00053 2.89149 3 3.33335V5.66669H4.206Z" fill="#78D253"/>
<path d="M9.33333 7H10.9113C11.0087 7 11.0973 6.96 11.1613 6.88733C11.1928 6.85199 11.2162 6.81031 11.2302 6.76511C11.2441 6.7199 11.2481 6.67223 11.242 6.62533L11.0753 5.292C11.0653 5.2114 11.0261 5.13724 10.9652 5.08348C10.9043 5.02971 10.8259 5.00002 10.7447 5H9.33333C9.24493 5 9.16014 5.03512 9.09763 5.09763C9.03512 5.16014 9 5.24493 9 5.33333V6.66667C9 6.75507 9.03512 6.83986 9.09763 6.90237C9.16014 6.96488 9.24493 7 9.33333 7Z" fill="#78D253"/>
<path d="M13.18 6.33344H12.0007C11.9574 6.33328 11.9146 6.32468 11.8747 6.30811L11.904 6.54277C11.9215 6.68348 11.9088 6.8263 11.8669 6.96176C11.825 7.09722 11.7548 7.22223 11.661 7.32851C11.5671 7.43478 11.4518 7.5199 11.3225 7.57822C11.1933 7.63654 11.0531 7.66672 10.9113 7.66677H9.33398C8.78265 7.66677 8.33398 7.21811 8.33398 6.66677V6.33344H7.66732V6.66677C7.66732 7.21811 7.21865 7.66677 6.66732 7.66677H5.08932C4.94753 7.66672 4.80737 7.63654 4.67812 7.57822C4.54888 7.5199 4.43351 7.43478 4.33965 7.32851C4.24579 7.22223 4.17559 7.09722 4.13369 6.96176C4.0918 6.8263 4.07918 6.68348 4.09665 6.54277L4.12332 6.33344H2.82132L0.362651 11.8648C0.343867 11.9074 0.334108 11.9535 0.333984 12.0001V14.0001C0.333984 14.0885 0.369103 14.1733 0.431615 14.2358C0.494128 14.2983 0.578912 14.3334 0.667318 14.3334H15.334C15.4224 14.3334 15.5072 14.2983 15.5697 14.2358C15.6322 14.1733 15.6673 14.0885 15.6673 14.0001V12.0001C15.6672 11.9535 15.6574 11.9074 15.6387 11.8648L13.18 6.33344ZM14.6673 12.3334H1.33398C1.24558 12.3334 1.16079 12.2983 1.09828 12.2358C1.03577 12.1733 1.00065 12.0885 1.00065 12.0001C1.00065 11.9117 1.03577 11.8269 1.09828 11.7644C1.16079 11.7019 1.24558 11.6668 1.33398 11.6668H14.6673C14.7557 11.6668 14.8405 11.7019 14.903 11.7644C14.9655 11.8269 15.0007 11.9117 15.0007 12.0001C15.0007 12.0885 14.9655 12.1733 14.903 12.2358C14.8405 12.2983 14.7557 12.3334 14.6673 12.3334Z" fill="#78D253"/>
</svg>
