<svg width="17" height="16" viewBox="0 0 17 16" fill="none" xmlns="http://www.w3.org/2000/svg">
<path d="M3.16634 2.66666H13.833C14.5663 2.66666 15.1663 3.26666 15.1663 3.99999V12C15.1663 12.7333 14.5663 13.3333 13.833 13.3333H3.16634C2.43301 13.3333 1.83301 12.7333 1.83301 12V3.99999C1.83301 3.26666 2.43301 2.66666 3.16634 2.66666Z" fill="#475467"/>
<path d="M15.1663 3.99999L8.49967 8.66666L1.83301 3.99999" fill="#475467"/>
<path d="M15.1663 3.99999C15.1663 3.26666 14.5663 2.66666 13.833 2.66666H3.16634C2.43301 2.66666 1.83301 3.26666 1.83301 3.99999M15.1663 3.99999V12C15.1663 12.7333 14.5663 13.3333 13.833 13.3333H3.16634C2.43301 13.3333 1.83301 12.7333 1.83301 12V3.99999M15.1663 3.99999L8.49967 8.66666L1.83301 3.99999" stroke="#D0D5DD" stroke-linecap="round" stroke-linejoin="round"/>
</svg>
