<svg width="17" height="16" viewBox="0 0 17 16" fill="none" xmlns="http://www.w3.org/2000/svg">
<path d="M15.1669 11.28V13.28C15.1677 13.4657 15.1297 13.6495 15.0553 13.8196C14.9809 13.9897 14.8718 14.1424 14.735 14.2679C14.5982 14.3934 14.4367 14.489 14.2608 14.5485C14.0849 14.608 13.8985 14.6301 13.7136 14.6133C11.6622 14.3904 9.69161 13.6894 7.96028 12.5667C6.3495 11.5431 4.98384 10.1775 3.96028 8.56668C2.8336 6.82748 2.13244 4.84734 1.91361 2.78668C1.89695 2.60233 1.91886 2.41652 1.97795 2.2411C2.03703 2.06567 2.13199 1.90447 2.25679 1.76776C2.38159 1.63105 2.53348 1.52182 2.70281 1.44703C2.87213 1.37224 3.05517 1.33352 3.24028 1.33335H5.24028C5.56382 1.33016 5.87748 1.44473 6.12279 1.6557C6.3681 1.86667 6.52833 2.15964 6.57361 2.48001C6.65803 3.12006 6.81458 3.7485 7.04028 4.35335C7.12998 4.59196 7.14939 4.85129 7.09622 5.1006C7.04305 5.34991 6.91952 5.57875 6.74028 5.76001L5.89361 6.60668C6.84265 8.27571 8.22458 9.65764 9.89361 10.6067L10.7403 9.76001C10.9215 9.58077 11.1504 9.45725 11.3997 9.40408C11.649 9.35091 11.9083 9.37032 12.1469 9.46001C12.7518 9.68571 13.3802 9.84227 14.0203 9.92668C14.3441 9.97237 14.6399 10.1355 14.8513 10.385C15.0627 10.6345 15.1751 10.9531 15.1669 11.28Z" fill="#475467" stroke="#D0D5DD" stroke-linecap="round" stroke-linejoin="round"/>
</svg>
