<svg width="41" height="41" viewBox="0 0 41 41" fill="none" xmlns="http://www.w3.org/2000/svg">
<g clip-path="url(#clip0_290_2637)">
<path d="M21.9278 0.0474977C18.999 -0.157432 16.0603 0.269146 13.3106 1.29837C10.5609 2.32759 8.0644 3.93544 5.98996 6.01313C3.91551 8.09081 2.31156 10.5898 1.28663 13.3411C0.261699 16.0924 -0.160294 19.0318 0.0492061 21.9603C0.802581 32.8133 10.3897 40.9997 22.3498 40.9997H32.458C34.7226 40.997 36.8936 40.0962 38.4949 38.4949C40.0962 36.8936 40.997 34.7226 40.9997 32.458V21.0805C41.0634 15.8145 39.1326 10.7193 35.595 6.81792C32.0575 2.91656 27.175 0.497878 21.9278 0.0474977ZM20.4997 8.54133C21.1793 8.54133 21.8311 8.81131 22.3116 9.29187C22.7922 9.77243 23.0622 10.4242 23.0622 11.1038C23.0622 11.7834 22.7922 12.4352 22.3116 12.9158C21.8311 13.3964 21.1793 13.6663 20.4997 13.6663C19.82 13.6663 19.1683 13.3964 18.6877 12.9158C18.2071 12.4352 17.9372 11.7834 17.9372 11.1038C17.9372 10.4242 18.2071 9.77243 18.6877 9.29187C19.1683 8.81131 19.82 8.54133 20.4997 8.54133ZM23.9163 30.7497C23.9163 31.2027 23.7363 31.6373 23.416 31.9576C23.0956 32.278 22.6611 32.458 22.208 32.458C21.7549 32.458 21.3204 32.278 21 31.9576C20.6797 31.6373 20.4997 31.2027 20.4997 30.7497V20.4997H18.7913C18.3383 20.4997 17.9037 20.3197 17.5834 19.9993C17.263 19.6789 17.083 19.2444 17.083 18.7913C17.083 18.3383 17.263 17.9037 17.5834 17.5834C17.9037 17.263 18.3383 17.083 18.7913 17.083H20.4997C21.4058 17.083 22.2749 17.443 22.9156 18.0837C23.5564 18.7245 23.9163 19.5935 23.9163 20.4997V30.7497Z" fill="white"/>
</g>
<defs>
<clipPath id="clip0_290_2637">
<rect width="41" height="41" fill="white"/>
</clipPath>
</defs>
</svg>
