<svg width="25" height="24" viewBox="0 0 25 24" fill="none" xmlns="http://www.w3.org/2000/svg">
<path d="M12.6666 6C11.9249 6 11.1999 6.21993 10.5832 6.63199C9.96655 7.04404 9.48591 7.62971 9.20208 8.31494C8.91825 9.00016 8.84399 9.75416 8.98868 10.4816C9.13338 11.209 9.49053 11.8772 10.015 12.4017C10.5394 12.9261 11.2076 13.2833 11.935 13.4279C12.6625 13.5726 13.4165 13.4984 14.1017 13.2145C14.7869 12.9307 15.3726 12.4501 15.7846 11.8334C16.1967 11.2167 16.4166 10.4917 16.4166 9.75C16.4166 8.75544 16.0215 7.80161 15.3183 7.09835C14.615 6.39509 13.6612 6 12.6666 6ZM12.6666 12C12.2216 12 11.7866 11.868 11.4166 11.6208C11.0466 11.3736 10.7582 11.0222 10.5879 10.611C10.4176 10.1999 10.373 9.7475 10.4599 9.31105C10.5467 8.87459 10.761 8.47368 11.0756 8.15901C11.3903 7.84434 11.7912 7.63005 12.2277 7.54323C12.6641 7.45642 13.1165 7.50097 13.5277 7.67127C13.9388 7.84157 14.2902 8.12996 14.5374 8.49997C14.7847 8.86998 14.9166 9.30499 14.9166 9.75C14.9166 10.3467 14.6796 10.919 14.2576 11.341C13.8357 11.7629 13.2634 12 12.6666 12ZM12.6666 1.5C10.4794 1.50248 8.38237 2.37247 6.83574 3.91911C5.2891 5.46575 4.41911 7.56273 4.41663 9.75C4.41663 12.6938 5.77694 15.8138 8.35413 18.7734C9.51215 20.1108 10.8155 21.3151 12.2401 22.3641C12.3662 22.4524 12.5164 22.4998 12.6704 22.4998C12.8243 22.4998 12.9746 22.4524 13.1007 22.3641C14.5226 21.3147 15.8235 20.1104 16.9791 18.7734C19.5526 15.8138 20.9166 12.6938 20.9166 9.75C20.9141 7.56273 20.0442 5.46575 18.4975 3.91911C16.9509 2.37247 14.8539 1.50248 12.6666 1.5ZM12.6666 20.8125C11.1169 19.5938 5.91663 15.1172 5.91663 9.75C5.91663 7.95979 6.62778 6.2429 7.89366 4.97703C9.15953 3.71116 10.8764 3 12.6666 3C14.4568 3 16.1737 3.71116 17.4396 4.97703C18.7055 6.2429 19.4166 7.95979 19.4166 9.75C19.4166 15.1153 14.2163 19.5938 12.6666 20.8125Z" fill="black"/>
</svg>
