<svg width="20" height="20" viewBox="0 0 20 20" fill="none" xmlns="http://www.w3.org/2000/svg">
<path d="M3.30783 12.0577L9.55783 5.80771C9.61588 5.7496 9.68481 5.7035 9.76068 5.67205C9.83656 5.64059 9.91788 5.62441 10 5.62441C10.0822 5.62441 10.1635 5.64059 10.2394 5.67205C10.3152 5.7035 10.3842 5.7496 10.4422 5.80771L16.6922 12.0577C16.8095 12.175 16.8754 12.334 16.8754 12.4999C16.8754 12.6657 16.8095 12.8248 16.6922 12.9421C16.5749 13.0594 16.4159 13.1252 16.25 13.1252C16.0842 13.1252 15.9251 13.0594 15.8078 12.9421L10 7.13349L4.19221 12.9421C4.13414 13.0002 4.0652 13.0462 3.98933 13.0776C3.91346 13.1091 3.83214 13.1252 3.75002 13.1252C3.6679 13.1252 3.58658 13.1091 3.51071 13.0776C3.43484 13.0462 3.3659 13.0002 3.30783 12.9421C3.24976 12.884 3.2037 12.8151 3.17227 12.7392C3.14085 12.6633 3.12467 12.582 3.12467 12.4999C3.12467 12.4178 3.14085 12.3365 3.17227 12.2606C3.2037 12.1847 3.24976 12.1158 3.30783 12.0577Z" fill="black"/>
</svg>
