<svg width="25" height="24" viewBox="0 0 25 24" fill="none" xmlns="http://www.w3.org/2000/svg">
<path d="M19.2606 5.12437C18.3634 4.21817 17.2963 3.49783 16.1203 3.0046C14.9443 2.51137 13.6826 2.25494 12.4074 2.25H12.3334C9.74751 2.25 7.26756 3.27723 5.43908 5.10571C3.6106 6.93419 2.58337 9.41414 2.58337 12V17.25C2.58337 17.8467 2.82043 18.419 3.24238 18.841C3.66434 19.2629 4.23664 19.5 4.83337 19.5H6.33337C6.93011 19.5 7.50241 19.2629 7.92437 18.841C8.34632 18.419 8.58337 17.8467 8.58337 17.25V13.5C8.58337 12.9033 8.34632 12.331 7.92437 11.909C7.50241 11.4871 6.93011 11.25 6.33337 11.25H4.11712C4.26176 9.68619 4.84916 8.196 5.81046 6.9541C6.77176 5.71219 8.06714 4.77003 9.54478 4.23803C11.0224 3.70603 12.6211 3.60624 14.1534 3.95035C15.6857 4.29446 17.0882 5.06822 18.1965 6.18094C19.5511 7.54247 20.3843 9.33662 20.5506 11.25H18.3334C17.7366 11.25 17.1643 11.4871 16.7424 11.909C16.3204 12.331 16.0834 12.9033 16.0834 13.5V17.25C16.0834 17.8467 16.3204 18.419 16.7424 18.841C17.1643 19.2629 17.7366 19.5 18.3334 19.5H20.5834C20.5834 20.0967 20.3463 20.669 19.9244 21.091C19.5024 21.5129 18.9301 21.75 18.3334 21.75H13.0834C12.8845 21.75 12.6937 21.829 12.553 21.9697C12.4124 22.1103 12.3334 22.3011 12.3334 22.5C12.3334 22.6989 12.4124 22.8897 12.553 23.0303C12.6937 23.171 12.8845 23.25 13.0834 23.25H18.3334C19.3279 23.25 20.2818 22.8549 20.985 22.1516C21.6883 21.4484 22.0834 20.4946 22.0834 19.5V12C22.0883 10.7246 21.8414 9.46077 21.357 8.28093C20.8727 7.10108 20.1602 6.02841 19.2606 5.12437ZM6.33337 12.75C6.53229 12.75 6.72305 12.829 6.8637 12.9697C7.00436 13.1103 7.08337 13.3011 7.08337 13.5V17.25C7.08337 17.4489 7.00436 17.6397 6.8637 17.7803C6.72305 17.921 6.53229 18 6.33337 18H4.83337C4.63446 18 4.4437 17.921 4.30304 17.7803C4.16239 17.6397 4.08337 17.4489 4.08337 17.25V12.75H6.33337ZM18.3334 18C18.1345 18 17.9437 17.921 17.803 17.7803C17.6624 17.6397 17.5834 17.4489 17.5834 17.25V13.5C17.5834 13.3011 17.6624 13.1103 17.803 12.9697C17.9437 12.829 18.1345 12.75 18.3334 12.75H20.5834V18H18.3334Z" fill="black"/>
</svg>
