<svg width="25" height="24" viewBox="0 0 25 24" fill="none" xmlns="http://www.w3.org/2000/svg">
<circle cx="12.9448" cy="12" r="12" fill="black"/>
<path d="M13.4256 5.92017C11.9584 5.92017 10.7656 7.11297 10.7656 8.58017C10.7656 10.0194 11.8912 11.1842 13.3584 11.2346C13.4032 11.229 13.448 11.229 13.4816 11.2346C13.4928 11.2346 13.4984 11.2346 13.5096 11.2346C13.5152 11.2346 13.5152 11.2346 13.5208 11.2346C14.9544 11.1842 16.08 10.0194 16.0856 8.58017C16.0856 7.11297 14.8928 5.92017 13.4256 5.92017Z" fill="white"/>
<path d="M16.2706 12.7242C14.7082 11.6826 12.1602 11.6826 10.5866 12.7242C9.8754 13.2002 9.4834 13.8442 9.4834 14.533C9.4834 15.2218 9.8754 15.8602 10.581 16.3306C11.365 16.857 12.3954 17.1202 13.4258 17.1202C14.4562 17.1202 15.4866 16.857 16.2706 16.3306C16.9762 15.8546 17.3682 15.2162 17.3682 14.5218C17.3626 13.833 16.9762 13.1946 16.2706 12.7242Z" fill="white"/>
</svg>
