<svg width="25" height="24" viewBox="0 0 25 24" fill="none" xmlns="http://www.w3.org/2000/svg">
<path fill-rule="evenodd" clip-rule="evenodd" d="M3.70994 9.5C3.70994 7.7761 4.39476 6.1228 5.61375 4.90381C6.83273 3.68482 8.48603 3 10.2099 3C11.9338 3 13.5871 3.68482 14.8061 4.90381C16.0251 6.1228 16.7099 7.7761 16.7099 9.5C16.7099 11.2239 16.0251 12.8772 14.8061 14.0962C13.5871 15.3152 11.9338 16 10.2099 16C8.48603 16 6.83273 15.3152 5.61375 14.0962C4.39476 12.8772 3.70994 11.2239 3.70994 9.5ZM10.2099 2C8.99836 2.00125 7.80512 2.296 6.73232 2.85903C5.65951 3.42207 4.73908 4.23662 4.04977 5.23301C3.36046 6.22939 2.92281 7.37793 2.77425 8.58037C2.62569 9.78281 2.77065 11.0033 3.19672 12.1375C3.6228 13.2717 4.3173 14.2858 5.22082 15.093C6.12433 15.9002 7.20995 16.4765 8.38479 16.7726C9.55964 17.0687 10.7887 17.0757 11.9669 16.7932C13.1451 16.5106 14.2372 15.9468 15.1499 15.15L21.8499 21.85L22.5599 21.15L15.8599 14.44C16.8095 13.3553 17.4263 12.02 17.6365 10.5938C17.8467 9.16763 17.6415 7.71109 17.0454 6.39855C16.4492 5.086 15.4875 3.97307 14.2752 3.19298C13.0629 2.4129 11.6515 1.99871 10.2099 2Z" fill="white"/>
</svg>
