<svg width="24" height="25" viewBox="0 0 24 25" fill="none" xmlns="http://www.w3.org/2000/svg">
<path d="M16.19 2.5H7.81C4.17 2.5 2 4.67 2 8.31V16.68C2 20.33 4.17 22.5 7.81 22.5H16.18C19.82 22.5 21.99 20.33 21.99 16.69V8.31C22 4.67 19.83 2.5 16.19 2.5ZM14.79 17.1C14.64 17.29 14.42 17.39 14.2 17.39C14.04 17.39 13.88 17.34 13.74 17.23C12.68 16.41 11.31 16.41 10.25 17.23C9.92 17.48 9.45 17.42 9.2 17.1C8.95 16.77 9.01 16.3 9.33 16.05C10.92 14.82 13.06 14.82 14.65 16.05C14.99 16.3 15.05 16.77 14.79 17.1ZM17 14.01C16.85 14.2 16.63 14.3 16.41 14.3C16.25 14.3 16.09 14.25 15.95 14.14C13.55 12.29 10.46 12.29 8.06 14.14C7.73 14.4 7.26 14.34 7 14.01C6.74 13.68 6.81 13.21 7.13 12.96C10.08 10.68 13.9 10.68 16.85 12.96C17.19 13.21 17.25 13.68 17 14.01ZM18.59 10.92C18.44 11.11 18.22 11.21 18 11.21C17.84 11.21 17.68 11.16 17.54 11.05C14.17 8.45 9.82 8.45 6.46 11.05C6.13 11.3 5.66 11.24 5.41 10.92C5.16 10.59 5.22 10.12 5.54 9.87C9.46 6.84 14.53 6.84 18.46 9.87C18.79 10.12 18.85 10.59 18.59 10.92Z" fill="#78D253"/>
</svg>
