<svg width="16" height="16" viewBox="0 0 16 16" fill="none" xmlns="http://www.w3.org/2000/svg">
<path d="M10.793 1.33331H5.20634C2.77967 1.33331 1.33301 2.77998 1.33301 5.20665V10.7866C1.33301 13.22 2.77967 14.6666 5.20634 14.6666H10.7863C13.213 14.6666 14.6597 13.22 14.6597 10.7933V5.20665C14.6663 2.77998 13.2197 1.33331 10.793 1.33331ZM9.85967 11.0666C9.75968 11.1933 9.61301 11.26 9.46634 11.26C9.35967 11.26 9.25301 11.2266 9.15967 11.1533C8.45301 10.6066 7.53967 10.6066 6.83301 11.1533C6.61301 11.32 6.29967 11.28 6.13301 11.0666C5.96634 10.8466 6.00634 10.5333 6.21967 10.3666C7.27967 9.54665 8.70634 9.54665 9.76634 10.3666C9.99301 10.5333 10.033 10.8466 9.85967 11.0666ZM11.333 9.00665C11.233 9.13331 11.0863 9.19998 10.9397 9.19998C10.833 9.19998 10.7263 9.16665 10.633 9.09331C9.03301 7.85998 6.97301 7.85998 5.37301 9.09331C5.15301 9.26665 4.83967 9.22665 4.66634 9.00665C4.49301 8.78665 4.53967 8.47331 4.75301 8.30665C6.71967 6.78665 9.26634 6.78665 11.233 8.30665C11.4597 8.47331 11.4997 8.78665 11.333 9.00665ZM12.393 6.94665C12.293 7.07331 12.1463 7.13998 11.9997 7.13998C11.893 7.13998 11.7863 7.10665 11.693 7.03331C9.44634 5.29998 6.54634 5.29998 4.30634 7.03331C4.08634 7.19998 3.77301 7.15998 3.60634 6.94665C3.43967 6.72665 3.47967 6.41331 3.69301 6.24665C6.30634 4.22665 9.68634 4.22665 12.3063 6.24665C12.5263 6.41331 12.5663 6.72665 12.393 6.94665Z" fill="#78D253"/>
</svg>
