<svg width="15" height="16" viewBox="0 0 15 16" fill="none" xmlns="http://www.w3.org/2000/svg">
<path d="M8.46722 2.34L9.55255 4.68667C9.70055 5.01334 10.0952 5.32667 10.4282 5.38667L12.3954 5.74C13.6534 5.96667 13.9494 6.95334 13.0429 7.92667L11.5135 9.58C11.2545 9.86 11.1127 10.4 11.1929 10.7867L11.6307 12.8333C11.9761 14.4533 11.1806 15.08 9.85472 14.2333L8.01088 13.0533C7.67788 12.84 7.12905 12.84 6.78988 13.0533L4.94605 14.2333C3.62638 15.08 2.82472 14.4467 3.17005 12.8333L3.60788 10.7867C3.68805 10.4 3.54622 9.86 3.28722 9.58L1.75788 7.92667C0.85755 6.95334 1.14738 5.96667 2.40538 5.74L4.37255 5.38667C4.69938 5.32667 5.09405 5.01334 5.24205 4.68667L6.32738 2.34C6.91938 1.06667 7.88138 1.06667 8.46722 2.34Z" fill="#78D253"/>
</svg>
