<svg width="17" height="16" viewBox="0 0 17 16" fill="none" xmlns="http://www.w3.org/2000/svg">
<path d="M14.5 8C14.5 11.3137 11.8137 14 8.5 14C7.23608 14 6.06344 13.6092 5.09633 12.9418L3.04545 13.4545L3.58288 11.4392C2.90046 10.4653 2.5 9.27944 2.5 8C2.5 4.68629 5.18629 2 8.5 2C11.8137 2 14.5 4.68629 14.5 8Z" fill="#475467" stroke="#D0D5DD"/>
<path d="M6.75001 4.75C6.58358 4.41572 6.32826 4.44531 6.07034 4.44531C5.60938 4.44531 4.89062 4.99745 4.89062 6.02504C4.89063 6.8672 5.26172 7.78907 6.51221 9.16812C7.71902 10.499 9.30469 11.1875 10.6211 11.164C11.9375 11.1406 12.2083 10.0078 12.2083 9.62522C12.2083 9.45566 12.1031 9.37106 12.0306 9.34807C11.582 9.13278 10.7547 8.73163 10.5664 8.65626C10.3782 8.58089 10.2799 8.68284 10.2188 8.73829C10.048 8.90098 9.70963 9.38045 9.59376 9.48829C9.47789 9.59614 9.30514 9.54156 9.23325 9.50079C8.96872 9.39464 8.25146 9.0756 7.67973 8.52137C6.97266 7.83595 6.93117 7.60013 6.79795 7.39022C6.69138 7.22228 6.76958 7.11925 6.8086 7.07422C6.96095 6.89844 7.1713 6.62706 7.26564 6.49219C7.35997 6.35733 7.28508 6.15257 7.24015 6.02504C7.04689 5.47657 6.88316 5.01744 6.75001 4.75Z" fill="#475467" stroke="#D0D5DD"/>
</svg>
