<svg width="30" height="30" viewBox="0 0 30 30" fill="none" xmlns="http://www.w3.org/2000/svg">
<path d="M8.51996 1.5H7.79996C7.19996 1.53 6.41996 1.56 6.08996 1.65C5.54996 1.77 5.03996 1.92 4.61996 2.13C4.13996 2.37 3.68996 2.7 3.29996 3.09C2.90996 3.48 2.60996 3.9 2.33996 4.41C2.12996 4.83 1.94996 5.34 1.85996 5.85C1.79996 6.21 1.73996 6.99 1.70996 7.59V22.2C1.73996 22.8 1.76996 23.58 1.85996 23.91C1.97996 24.45 2.12996 24.96 2.33996 25.38C2.57996 25.86 2.90996 26.31 3.29996 26.7C3.68996 27.09 4.10996 27.39 4.61996 27.66C5.03996 27.87 5.54996 28.05 6.05996 28.14C6.41996 28.2 7.19996 28.26 7.79996 28.29H22.41C23.01 28.26 23.79 28.23 24.12 28.14C24.66 28.02 25.17 27.87 25.59 27.66C26.07 27.42 26.52 27.09 26.91 26.7C27.3 26.31 27.6 25.89 27.87 25.38C28.08 24.96 28.26 24.45 28.35 23.94C28.41 23.58 28.47 22.8 28.5 22.2V8.31V7.59C28.47 6.99 28.44 6.21 28.35 5.88C28.23 5.34 28.08 4.83 27.87 4.41C27.63 3.93 27.3 3.48 26.91 3.09C26.52 2.7 26.1 2.4 25.59 2.13C25.17 1.92 24.66 1.74 24.15 1.65C23.79 1.59 23.01 1.53 22.41 1.5H8.51996Z" fill="url(#paint0_linear_650_3330)"/>
<path d="M19.9798 16.32C19.7398 16.2 18.5398 15.63 18.3298 15.54C18.1198 15.45 17.9398 15.42 17.7898 15.66C17.6398 15.9 17.1598 16.44 17.0398 16.59C16.8898 16.74 16.7698 16.77 16.5298 16.65C16.2898 16.53 15.5098 16.29 14.5798 15.48C13.8598 14.85 13.3798 14.07 13.2298 13.83C13.0798 13.59 13.2298 13.47 13.3498 13.35C13.4698 13.23 13.5898 13.08 13.7098 12.93C13.8298 12.78 13.8598 12.69 13.9498 12.54C14.0398 12.39 13.9798 12.24 13.9198 12.12C13.8598 12 13.3798 10.83 13.1698 10.35C12.9598 9.90001 12.7798 9.96001 12.6298 9.93001H12.1798C12.0298 9.93001 11.7598 9.99001 11.5498 10.23C11.3398 10.47 10.7098 11.04 10.7098 12.21C10.7098 13.38 11.5798 14.49 11.6998 14.67C11.8198 14.82 13.4098 17.22 15.8098 18.24C16.3798 18.48 16.8298 18.63 17.1898 18.75C17.7598 18.93 18.2998 18.9 18.7198 18.84C19.1698 18.78 20.1598 18.27 20.3398 17.73C20.5498 17.19 20.5498 16.71 20.4898 16.62C20.3698 16.5 20.2198 16.44 19.9798 16.32ZM15.3898 22.5C13.9498 22.5 12.5698 22.11 11.3398 21.39L11.0398 21.21L8.03977 21.99L8.84977 19.08L8.66977 18.78C7.88977 17.52 7.46977 16.08 7.46977 14.58C7.46977 10.23 11.0398 6.69001 15.4198 6.69001C17.4898 6.69001 19.4998 7.50001 20.9998 9.00001C22.4998 10.5 23.3098 12.48 23.3098 14.58C23.3098 18.93 19.7398 22.5 15.3898 22.5ZM22.1398 7.86001C20.3398 6.06001 17.9398 5.07001 15.3898 5.07001C10.1398 5.07001 5.84977 9.33001 5.84977 14.58C5.84977 16.26 6.29977 17.88 7.10977 19.32L5.75977 24.24L10.7998 22.92C12.1798 23.67 13.7698 24.09 15.3598 24.09C20.6098 24.09 24.8998 19.83 24.8998 14.58C24.9298 12.06 23.9398 9.66001 22.1398 7.86001Z" fill="white"/>
<defs>
<linearGradient id="paint0_linear_650_3330" x1="15.114" y1="1.506" x2="15.114" y2="28.272" gradientUnits="userSpaceOnUse">
<stop stop-color="#62FA7F"/>
<stop offset="0.686" stop-color="#22CC40"/>
<stop offset="1" stop-color="#05B723"/>
</linearGradient>
</defs>
</svg>
