<svg width="16" height="16" viewBox="0 0 16 16" fill="none" xmlns="http://www.w3.org/2000/svg">
<g clip-path="url(#clip0_2679_4920)">
<path d="M14.0007 7.33334H11.8873L13.5807 5.64C13.8407 5.38 13.8407 4.96 13.5807 4.7C13.3207 4.44 12.894 4.44 12.634 4.7L10.0007 7.33334H8.66732V6L11.3007 3.36667C11.5607 3.10667 11.5607 2.68 11.3007 2.42C11.0407 2.16 10.6207 2.16 10.3607 2.42L8.66732 4.11334V2C8.66732 1.63334 8.36732 1.33334 8.00065 1.33334C7.63398 1.33334 7.33398 1.63334 7.33398 2V4.11334L5.64065 2.42C5.38065 2.16 4.96065 2.16 4.70065 2.42C4.44065 2.68 4.44065 3.10667 4.70065 3.36667L7.33398 6V7.33334H6.00065L3.36732 4.7C3.10732 4.44 2.68065 4.44 2.42065 4.7C2.16065 4.96 2.16065 5.38 2.42065 5.64L4.11398 7.33334H2.00065C1.63398 7.33334 1.33398 7.63334 1.33398 8C1.33398 8.36667 1.63398 8.66667 2.00065 8.66667H4.11398L2.42065 10.36C2.16065 10.62 2.16065 11.04 2.42065 11.3C2.68065 11.56 3.10732 11.56 3.36732 11.3L6.00065 8.66667H7.33398V10L4.70065 12.6333C4.44065 12.8933 4.44065 13.32 4.70065 13.58C4.96065 13.84 5.38065 13.84 5.64065 13.58L7.33398 11.8867V14C7.33398 14.3667 7.63398 14.6667 8.00065 14.6667C8.36732 14.6667 8.66732 14.3667 8.66732 14V11.8867L10.3607 13.58C10.6207 13.84 11.0407 13.84 11.3007 13.58C11.5607 13.32 11.5607 12.8933 11.3007 12.6333L8.66732 10V8.66667H10.0007L12.634 11.3C12.894 11.56 13.3207 11.56 13.5807 11.3C13.8407 11.04 13.8407 10.62 13.5807 10.36L11.8873 8.66667H14.0007C14.3673 8.66667 14.6673 8.36667 14.6673 8C14.6673 7.63334 14.3673 7.33334 14.0007 7.33334Z" fill="#162748"/>
</g>
<defs>
<clipPath id="clip0_2679_4920">
<rect width="16" height="16" fill="white"/>
</clipPath>
</defs>
</svg>
