<svg width="45" height="44" viewBox="0 0 45 44" fill="none" xmlns="http://www.w3.org/2000/svg">
<rect x="0.332031" width="44" height="44" rx="22" fill="#4AFF00" fill-opacity="0.15"/>
<g clip-path="url(#clip0_2213_11516)">
<path d="M25.666 29.5V27.8333C25.666 26.9493 25.3148 26.1014 24.6897 25.4763C24.0646 24.8512 23.2167 24.5 22.3327 24.5H16.4993C15.6153 24.5 14.7674 24.8512 14.1423 25.4763C13.5172 26.1014 13.166 26.9493 13.166 27.8333V29.5M26.4993 21.1667L28.166 22.8333L31.4993 19.5M22.7493 17.8333C22.7493 19.6743 21.257 21.1667 19.416 21.1667C17.5751 21.1667 16.0827 19.6743 16.0827 17.8333C16.0827 15.9924 17.5751 14.5 19.416 14.5C21.257 14.5 22.7493 15.9924 22.7493 17.8333Z" stroke="#18181B" stroke-width="1.66667" stroke-linecap="round" stroke-linejoin="round"/>
</g>
<defs>
<clipPath id="clip0_2213_11516">
<rect width="20" height="20" fill="white" transform="translate(12.332 12)"/>
</clipPath>
</defs>
</svg>
