<svg width="16" height="16" viewBox="0 0 16 16" fill="none" xmlns="http://www.w3.org/2000/svg">
<g clip-path="url(#clip0_2494_6882)">
<path d="M11.3327 14V12.6667C11.3327 11.9594 11.0517 11.2811 10.5516 10.781C10.0515 10.281 9.37326 10 8.66602 10H3.33268C2.62544 10 1.94716 10.281 1.44706 10.781C0.946967 11.2811 0.666016 11.9594 0.666016 12.6667V14M15.3327 14V12.6667C15.3322 12.0758 15.1356 11.5018 14.7736 11.0349C14.4116 10.5679 13.9048 10.2344 13.3327 10.0867M10.666 2.08667C11.2396 2.23353 11.748 2.56713 12.1111 3.03487C12.4742 3.50261 12.6712 4.07789 12.6712 4.67C12.6712 5.26211 12.4742 5.83739 12.1111 6.30513C11.748 6.77287 11.2396 7.10647 10.666 7.25333M8.66602 4.66667C8.66602 6.13943 7.47211 7.33333 5.99935 7.33333C4.52659 7.33333 3.33268 6.13943 3.33268 4.66667C3.33268 3.19391 4.52659 2 5.99935 2C7.47211 2 8.66602 3.19391 8.66602 4.66667Z" stroke="#344054" stroke-width="1.5" stroke-linecap="round" stroke-linejoin="round"/>
</g>
<defs>
<clipPath id="clip0_2494_6882">
<rect width="16" height="16" fill="white"/>
</clipPath>
</defs>
</svg>
