<svg width="44" height="44" viewBox="0 0 44 44" fill="none" xmlns="http://www.w3.org/2000/svg">
<rect width="44" height="44" rx="22" fill="#FF7A00" fill-opacity="0.15"/>
<path d="M25.334 29.5V27.8333C25.334 26.9493 24.9828 26.1014 24.3577 25.4763C23.7326 24.8512 22.8847 24.5 22.0007 24.5H16.1673C15.2833 24.5 14.4354 24.8512 13.8103 25.4763C13.1852 26.1014 12.834 26.9493 12.834 27.8333V29.5M28.6673 18.6667V23.6667M31.1673 21.1667H26.1673M22.4173 17.8333C22.4173 19.6743 20.9249 21.1667 19.084 21.1667C17.243 21.1667 15.7507 19.6743 15.7507 17.8333C15.7507 15.9924 17.243 14.5 19.084 14.5C20.9249 14.5 22.4173 15.9924 22.4173 17.8333Z" stroke="#18181B" stroke-width="1.66667" stroke-linecap="round" stroke-linejoin="round"/>
</svg>
