<svg width="20" height="20" viewBox="0 0 20 20" fill="none" xmlns="http://www.w3.org/2000/svg">
<g clip-path="url(#clip0_2874_7148)">
<path d="M14.166 2.5C14.3849 2.28113 14.6447 2.10751 14.9307 1.98906C15.2167 1.87061 15.5232 1.80964 15.8327 1.80964C16.1422 1.80964 16.4487 1.87061 16.7347 1.98906C17.0206 2.10751 17.2805 2.28113 17.4993 2.5C17.7182 2.71887 17.8918 2.97871 18.0103 3.26467C18.1287 3.55064 18.1897 3.85714 18.1897 4.16667C18.1897 4.4762 18.1287 4.78269 18.0103 5.06866C17.8918 5.35463 17.7182 5.61446 17.4993 5.83333L6.24935 17.0833L1.66602 18.3333L2.91602 13.75L14.166 2.5Z" stroke="#71717A" stroke-width="1.67" stroke-linecap="round" stroke-linejoin="round"/>
</g>
<defs>
<clipPath id="clip0_2874_7148">
<rect width="20" height="20" fill="white"/>
</clipPath>
</defs>
</svg>
