<svg width="24" height="24" viewBox="0 0 24 24" fill="none" xmlns="http://www.w3.org/2000/svg">
<g clip-path="url(#clip0_857_1674)">
<path d="M6.3083 6.44434C3.19705 8.66656 1.5 12.0001 1.5 12.0001C1.5 12.0001 5.31818 19.5001 12 19.5001C14.1341 19.5001 15.9761 18.735 17.4949 17.6935" stroke="black" stroke-width="2" stroke-linecap="round" stroke-linejoin="round"/>
<path d="M10.5 4.6279C10.9825 4.54495 11.4827 4.5 12 4.5C18.6818 4.5 22.5 12 22.5 12C22.5 12 21.7844 13.4057 20.4305 15" stroke="black" stroke-width="2" stroke-linecap="round" stroke-linejoin="round"/>
<path d="M9.75 10.0156C9.28323 10.5445 9 11.2392 9 12C9 13.6568 10.3431 15 12 15C12.7608 15 13.4555 14.7168 13.9844 14.25" stroke="black" stroke-width="2" stroke-linecap="round" stroke-linejoin="round"/>
<path d="M1.5 1.5L22.5 22.5" stroke="black" stroke-width="2" stroke-linecap="round" stroke-linejoin="round"/>
</g>
<defs>
<clipPath id="clip0_857_1674">
<rect width="24" height="24" fill="white"/>
</clipPath>
</defs>
</svg>
