<svg width="24" height="24" viewBox="0 0 24 24" fill="none" xmlns="http://www.w3.org/2000/svg">
<path d="M7.31923 12.652H9.48923V21.6774C9.48923 21.8556 9.63214 22 9.80852 22H13.4878C13.6642 22 13.8071 21.8556 13.8071 21.6774V12.6945H16.3017C16.4639 12.6945 16.6004 12.5715 16.6189 12.4088L16.9978 9.08606C17.0082 8.99465 16.9795 8.9031 16.919 8.83452C16.8584 8.76587 16.7716 8.72658 16.6806 8.72658H13.8072V6.64374C13.8072 6.01587 14.1419 5.69748 14.8019 5.69748C14.896 5.69748 16.6806 5.69748 16.6806 5.69748C16.857 5.69748 16.9999 5.55303 16.9999 5.3749V2.32497C16.9999 2.14677 16.857 2.00239 16.6806 2.00239H14.0915C14.0732 2.00148 14.0327 2 13.9729 2C13.5236 2 11.9621 2.0891 10.7286 3.23555C9.36189 4.506 9.55187 6.02716 9.59728 6.2909V8.72652H7.31923C7.14286 8.72652 6.99994 8.8709 6.99994 9.0491V12.3294C6.99994 12.5075 7.14286 12.652 7.31923 12.652Z" fill="black"/>
</svg>
