<svg width="14" height="14" viewBox="0 0 14 14" fill="none" xmlns="http://www.w3.org/2000/svg">
<g clip-path="url(#clip0_1744_10763)">
<path d="M12.8338 9.86999V11.62C12.8345 11.7824 12.8012 11.9433 12.7361 12.0921C12.671 12.241 12.5756 12.3746 12.4559 12.4844C12.3362 12.5942 12.1948 12.6779 12.0409 12.7299C11.887 12.7819 11.724 12.8013 11.5622 12.7867C9.76714 12.5916 8.04291 11.9782 6.52799 10.9958C5.11856 10.1002 3.9236 8.90525 3.02799 7.49582C2.04214 5.97402 1.42863 4.2414 1.23716 2.43832C1.22258 2.27701 1.24175 2.11443 1.29345 1.96093C1.34515 1.80744 1.42824 1.66639 1.53744 1.54676C1.64663 1.42714 1.77954 1.33157 1.9277 1.26612C2.07586 1.20068 2.23602 1.1668 2.39799 1.16665H4.14799C4.43109 1.16387 4.70554 1.26411 4.92018 1.44871C5.13483 1.63331 5.27503 1.88966 5.31466 2.16999C5.38852 2.73002 5.5255 3.27991 5.72299 3.80915C5.80147 4.01794 5.81846 4.24485 5.77194 4.463C5.72541 4.68115 5.61733 4.88138 5.46049 5.03999L4.71966 5.78082C5.55006 7.24122 6.75925 8.45041 8.21966 9.28082L8.96049 8.53999C9.11909 8.38315 9.31933 8.27506 9.53748 8.22854C9.75562 8.18202 9.98253 8.199 10.1913 8.27749C10.7206 8.47497 11.2705 8.61196 11.8305 8.68582C12.1139 8.72579 12.3726 8.86852 12.5576 9.08686C12.7426 9.30519 12.8409 9.5839 12.8338 9.86999Z" stroke="#98A2B3" stroke-width="1.05123" stroke-linecap="round" stroke-linejoin="round"/>
</g>
<defs>
<clipPath id="clip0_1744_10763">
<rect width="14" height="14" fill="white"/>
</clipPath>
</defs>
</svg>
