<svg width="16" height="16" viewBox="0 0 16 16" fill="none" xmlns="http://www.w3.org/2000/svg">
<g clip-path="url(#clip0_2494_6887)">
<path d="M7.99935 10C9.10392 10 9.99935 9.10457 9.99935 8C9.99935 6.89543 9.10392 6 7.99935 6C6.89478 6 5.99935 6.89543 5.99935 8C5.99935 9.10457 6.89478 10 7.99935 10Z" stroke="#344054" stroke-width="1.5" stroke-linecap="round" stroke-linejoin="round"/>
<path d="M12.9327 10C12.8439 10.2011 12.8175 10.4241 12.8567 10.6404C12.8959 10.8567 12.999 11.0562 13.1527 11.2133L13.1927 11.2533C13.3167 11.3772 13.415 11.5242 13.4821 11.6861C13.5492 11.8479 13.5837 12.0214 13.5837 12.1967C13.5837 12.3719 13.5492 12.5454 13.4821 12.7073C13.415 12.8691 13.3167 13.0162 13.1927 13.14C13.0689 13.264 12.9218 13.3623 12.7599 13.4294C12.5981 13.4965 12.4246 13.531 12.2493 13.531C12.0741 13.531 11.9006 13.4965 11.7388 13.4294C11.5769 13.3623 11.4298 13.264 11.306 13.14L11.266 13.1C11.1089 12.9463 10.9093 12.8432 10.6931 12.804C10.4768 12.7648 10.2538 12.7913 10.0527 12.88C9.8555 12.9645 9.68734 13.1048 9.56889 13.2837C9.45044 13.4625 9.38687 13.6721 9.38602 13.8867V14C9.38602 14.3536 9.24554 14.6928 8.99549 14.9428C8.74544 15.1929 8.4063 15.3333 8.05268 15.3333C7.69906 15.3333 7.35992 15.1929 7.10987 14.9428C6.85982 14.6928 6.71935 14.3536 6.71935 14V13.94C6.71419 13.7193 6.64276 13.5053 6.51436 13.3258C6.38595 13.1463 6.20651 13.0095 5.99935 12.9333C5.79827 12.8446 5.57522 12.8181 5.35896 12.8573C5.14269 12.8965 4.94313 12.9996 4.78602 13.1533L4.74602 13.1933C4.62218 13.3173 4.47513 13.4156 4.31327 13.4827C4.1514 13.5498 3.9779 13.5844 3.80268 13.5844C3.62746 13.5844 3.45396 13.5498 3.2921 13.4827C3.13023 13.4156 2.98318 13.3173 2.85935 13.1933C2.73538 13.0695 2.63703 12.9224 2.56994 12.7606C2.50284 12.5987 2.4683 12.4252 2.4683 12.25C2.4683 12.0748 2.50284 11.9013 2.56994 11.7394C2.63703 11.5775 2.73538 11.4305 2.85935 11.3067L2.89935 11.2667C3.05304 11.1095 3.15614 10.91 3.19535 10.6937C3.23456 10.4775 3.20809 10.2544 3.11935 10.0533C3.03484 9.85615 2.89452 9.68799 2.71566 9.56954C2.5368 9.45108 2.32721 9.38752 2.11268 9.38666H1.99935C1.64573 9.38666 1.30659 9.24619 1.05654 8.99614C0.806491 8.74609 0.666016 8.40695 0.666016 8.05333C0.666016 7.69971 0.806491 7.36057 1.05654 7.11052C1.30659 6.86047 1.64573 6.72 1.99935 6.72H2.05935C2.28001 6.71484 2.49402 6.64341 2.67355 6.515C2.85308 6.3866 2.98983 6.20715 3.06602 6C3.15476 5.79892 3.18123 5.57587 3.14202 5.3596C3.10281 5.14334 2.99971 4.94378 2.84602 4.78666L2.80602 4.74666C2.68205 4.62283 2.5837 4.47578 2.5166 4.31392C2.4495 4.15205 2.41497 3.97855 2.41497 3.80333C2.41497 3.62811 2.4495 3.45461 2.5166 3.29274C2.5837 3.13088 2.68205 2.98383 2.80602 2.86C2.92985 2.73603 3.0769 2.63768 3.23876 2.57058C3.40063 2.50349 3.57413 2.46895 3.74935 2.46895C3.92457 2.46895 4.09807 2.50349 4.25994 2.57058C4.4218 2.63768 4.56885 2.73603 4.69268 2.86L4.73268 2.9C4.8898 3.05369 5.08936 3.15679 5.30562 3.196C5.52189 3.23521 5.74494 3.20874 5.94602 3.12H5.99935C6.19653 3.03549 6.36469 2.89517 6.48314 2.71631C6.60159 2.53745 6.66516 2.32786 6.66602 2.11333V2C6.66602 1.64638 6.80649 1.30724 7.05654 1.05719C7.30659 0.80714 7.64573 0.666664 7.99935 0.666664C8.35297 0.666664 8.69211 0.80714 8.94216 1.05719C9.19221 1.30724 9.33268 1.64638 9.33268 2V2.06C9.33354 2.27452 9.3971 2.48411 9.51555 2.66297C9.634 2.84183 9.80217 2.98216 9.99935 3.06666C10.2004 3.15541 10.4235 3.18188 10.6397 3.14267C10.856 3.10345 11.0556 3.00036 11.2127 2.84666L11.2527 2.80666C11.3765 2.6827 11.5236 2.58435 11.6854 2.51725C11.8473 2.45015 12.0208 2.41562 12.196 2.41562C12.3712 2.41562 12.5447 2.45015 12.7066 2.51725C12.8685 2.58435 13.0155 2.6827 13.1393 2.80666C13.2633 2.93049 13.3617 3.07755 13.4288 3.23941C13.4959 3.40127 13.5304 3.57478 13.5304 3.75C13.5304 3.92522 13.4959 4.09872 13.4288 4.26058C13.3617 4.42245 13.2633 4.5695 13.1393 4.69333L13.0993 4.73333C12.9457 4.89045 12.8426 5.09001 12.8033 5.30627C12.7641 5.52253 12.7906 5.74559 12.8793 5.94666V6C12.9639 6.19718 13.1042 6.36534 13.283 6.48379C13.4619 6.60224 13.6715 6.66581 13.886 6.66666H13.9993C14.353 6.66666 14.6921 6.80714 14.9422 7.05719C15.1922 7.30724 15.3327 7.64638 15.3327 8C15.3327 8.35362 15.1922 8.69276 14.9422 8.94281C14.6921 9.19285 14.353 9.33333 13.9993 9.33333H13.9393C13.7248 9.33419 13.5152 9.39775 13.3364 9.5162C13.1575 9.63465 13.0172 9.80282 12.9327 10Z" stroke="#344054" stroke-width="1.5" stroke-linecap="round" stroke-linejoin="round"/>
</g>
<defs>
<clipPath id="clip0_2494_6887">
<rect width="16" height="16" fill="white"/>
</clipPath>
</defs>
</svg>
