<svg width="24" height="24" viewBox="0 0 24 24" fill="none" xmlns="http://www.w3.org/2000/svg">
<path d="M12 2C6.47591 2 2 6.47591 2 12C2 17.5241 6.47591 22 12 22C17.5241 22 22 17.5241 22 12C22 6.47591 17.5241 2 12 2ZM12 3.66667C16.6289 3.66667 20.3333 7.37109 20.3333 12C20.3333 16.6289 16.6289 20.3333 12 20.3333C7.37109 20.3333 3.66667 16.6289 3.66667 12C3.66667 7.37109 7.37109 3.66667 12 3.66667ZM10.6719 7.625C9.05078 7.625 7.63802 7.77474 6.29688 8.19792C5.94206 8.26953 5.64583 8.53646 5.64583 9.03125C5.64583 9.52604 6.01042 9.96224 6.50521 9.89062C6.7168 9.89062 6.86003 9.8125 7 9.8125C8.12956 9.5293 9.40234 9.39583 10.6719 9.39583C13.1393 9.39583 15.6719 9.94596 17.3646 10.9323C17.5762 11.0039 17.6478 11.0885 17.8594 11.0885C18.3542 11.0885 18.6992 10.724 18.7708 10.2292C18.7708 9.80599 18.5592 9.53581 18.276 9.39583C16.1602 8.19792 13.3509 7.625 10.6719 7.625ZM10.4375 10.724C8.95638 10.724 7.90169 10.9355 6.84375 11.2188C6.49219 11.3587 6.29688 11.5768 6.29688 12C6.29688 12.3516 6.57682 12.7031 7 12.7031C7.14323 12.7031 7.20508 12.6966 7.41667 12.625C8.19141 12.4134 9.25586 12.2865 10.3854 12.2865C12.7129 12.2865 14.7376 12.8529 16.2188 13.7708C16.3587 13.8424 16.502 13.901 16.7135 13.901C17.1367 13.901 17.4167 13.543 17.4167 13.1198C17.4167 12.8366 17.2832 12.5566 17 12.4167C15.1673 11.2871 12.8366 10.724 10.4375 10.724ZM10.6719 13.7708C9.47396 13.7708 8.33789 13.9043 7.20833 14.1875C6.92513 14.2591 6.71354 14.4609 6.71354 14.8125C6.71354 15.0957 6.9349 15.3854 7.28646 15.3854C7.35807 15.3854 7.56315 15.3073 7.70312 15.3073C8.62109 15.0957 9.60742 14.9688 10.5938 14.9688C12.3548 14.9688 13.9661 15.3919 15.3073 16.1667C15.4505 16.2383 15.61 16.2969 15.75 16.2969C16.0332 16.2969 16.3034 16.0853 16.375 15.8021C16.375 15.4473 16.222 15.3171 16.0104 15.1771C14.4577 14.2591 12.6445 13.7708 10.6719 13.7708Z" fill="black"/>
</svg>
