<svg width="24" height="24" viewBox="0 0 24 24" fill="none" xmlns="http://www.w3.org/2000/svg">
<path d="M10.2815 3.78736L1.76935 17.9977C1.59385 18.3016 1.50099 18.6462 1.50001 18.9972C1.49903 19.3481 1.58996 19.6932 1.76375 19.9981C1.93755 20.303 2.18815 20.5571 2.49063 20.7351C2.79311 20.9131 3.13692 21.0088 3.48786 21.0126H20.5121C20.8631 21.0088 21.2069 20.9131 21.5094 20.7351C21.8118 20.5571 22.0625 20.303 22.2362 19.9981C22.41 19.6932 22.501 19.3481 22.5 18.9972C22.499 18.6462 22.4061 18.3016 22.2306 17.9977L13.7185 3.78736C13.5394 3.492 13.2871 3.24781 12.9861 3.07833C12.6851 2.90886 12.3454 2.81982 12 2.81982C11.6546 2.81982 11.3149 2.90886 11.0139 3.07833C10.7129 3.24781 10.4606 3.492 10.2815 3.78736Z" stroke="black" stroke-width="2" stroke-linecap="round" stroke-linejoin="round"/>
<path d="M12 9.75V12.75" stroke="black" stroke-width="2" stroke-linecap="round" stroke-linejoin="round"/>
<path d="M12 16.5H12.01" stroke="black" stroke-width="2" stroke-linecap="round" stroke-linejoin="round"/>
</svg>
