<svg width="16" height="16" viewBox="0 0 16 16" fill="none" xmlns="http://www.w3.org/2000/svg">
<path d="M12.0003 7.13999C11.8937 7.13999 11.787 7.10666 11.6937 7.03332C9.44701 5.29999 6.54701 5.29999 4.30701 7.03332C4.08701 7.19999 3.77368 7.15999 3.60701 6.94665C3.44035 6.72665 3.48034 6.41332 3.69368 6.24665C6.30701 4.22665 9.68701 4.22665 12.307 6.24665C12.527 6.41332 12.567 6.72665 12.3937 6.94665C12.3003 7.07332 12.147 7.13999 12.0003 7.13999Z" fill="#162748"/>
<path d="M10.9323 9.2C10.8256 9.2 10.7189 9.16666 10.6256 9.09333C9.02561 7.85999 6.96561 7.85999 5.36561 9.09333C5.14561 9.25999 4.83227 9.21999 4.66561 9.00666C4.49894 8.78666 4.53894 8.47333 4.75227 8.30666C6.71894 6.78666 9.26561 6.78666 11.2323 8.30666C11.4523 8.47333 11.4923 8.78666 11.3189 9.00666C11.2323 9.13332 11.0856 9.2 10.9323 9.2Z" fill="#162748"/>
<path d="M9.46769 11.26C9.36102 11.26 9.25435 11.2267 9.16102 11.1533C8.45436 10.6067 7.54102 10.6067 6.83436 11.1533C6.61436 11.32 6.30102 11.28 6.13435 11.0667C5.96769 10.8467 6.00769 10.5333 6.22102 10.3667C7.28102 9.54667 8.70769 9.54667 9.76769 10.3667C9.98769 10.5333 10.0277 10.8467 9.85436 11.0667C9.76769 11.1933 9.62102 11.26 9.46769 11.26Z" fill="#162748"/>
<path d="M10.0007 15.1667H6.00065C2.38065 15.1667 0.833984 13.62 0.833984 10V6C0.833984 2.38 2.38065 0.833336 6.00065 0.833336H10.0007C13.6207 0.833336 15.1673 2.38 15.1673 6V10C15.1673 13.62 13.6207 15.1667 10.0007 15.1667ZM6.00065 1.83334C2.92732 1.83334 1.83398 2.92667 1.83398 6V10C1.83398 13.0733 2.92732 14.1667 6.00065 14.1667H10.0007C13.074 14.1667 14.1673 13.0733 14.1673 10V6C14.1673 2.92667 13.074 1.83334 10.0007 1.83334H6.00065Z" fill="#162748"/>
</svg>
